<svg xmlns="http://www.w3.org/2000/svg" width="16" height="11" viewBox="0 0 16 11"><defs><style>.a{fill:#1c68a1;}</style></defs><g transform="translate(10.606 2.028)"><path class="a" d="M339.392,148.45l5.394,3.41V144.9Z" transform="translate(-339.392 -144.896)"/></g><g transform="translate(0 2.028)"><path class="a" d="M0,144.9v6.964l5.394-3.41Z" transform="translate(0 -144.896)"/></g><g transform="translate(0.03)"><path class="a" d="M15.93,80h-14a.988.988,0,0,0-.97.851L8.93,86.1l7.97-5.251A.988.988,0,0,0,15.93,80Z" transform="translate(-0.96 -80)"/></g><g transform="translate(0.032 6.185)"><path class="a" d="M10.682,277.921l-1.415.932a.5.5,0,0,1-.55,0L7.3,277.92l-6.278,3.971a.986.986,0,0,0,.968.844h14a.986.986,0,0,0,.968-.844Z" transform="translate(-1.024 -277.92)"/></g></svg>