<svg id="FiberART_brandmark" data-name="FiberART brandmark" xmlns="http://www.w3.org/2000/svg" width="37.992" height="24" viewBox="0 0 37.992 24">
  <path id="Контур_239" data-name="Контур 239" d="M1243.892,2244.7l-3,6.008a.731.731,0,0,1-.654.4H1223.7v.042l-2.2,4.418,0,0H1225l0,0,.9-1.795a1.045,1.045,0,0,1,.934-.578h1.428a.522.522,0,0,1,.467.755l-1.91,3.827a.731.731,0,0,1-.654.4h-8.386a.314.314,0,0,1-.281-.453l4.319-8.656a1.045,1.045,0,0,1,.935-.578h16.325l.971-1.946h-4.773a.313.313,0,0,1-.281-.452l.782-1.578a1.044,1.044,0,0,1,.936-.581h6.712A.522.522,0,0,1,1243.892,2244.7Z" transform="translate(-1217.465 -2234.187)" fill="#fff"/>
  <path id="Контур_240" data-name="Контур 240" d="M1305.177,2151.295l-3.216,6.441a.731.731,0,0,1-.654.4h-16.784l-2.122,4.254a.731.731,0,0,1-.654.4h-8.386a.313.313,0,0,1-.28-.453l.789-1.58a1.045,1.045,0,0,1,.935-.578h5.78l2.036-4.081a1.045,1.045,0,0,1,.935-.578h16.592l1.188-2.379h-20.746l-2.289,4.586a.731.731,0,0,1-.654.4h-1.958a.313.313,0,0,1-.28-.453l3.278-6.57a1.044,1.044,0,0,1,.935-.578h25.093A.522.522,0,0,1,1305.177,2151.295Z" transform="translate(-1267.241 -2150.539)" fill="#fff"/>
</svg>
