            <svg class="d-none d-md-flex" xmlns="http://www.w3.org/2000/svg" width="129.333" height="16"
                viewBox="0 0 129.333 16">
                <defs>
                    <style>
                        .a {
                            fill: #1C68A1;
                        }
                    </style>
                </defs>
                <path class="a"
                    d="M-1162.919,6495.342l-2,4.006a.487.487,0,0,1-.436.27h-11.027v.027l-1.47,2.945,0,0h2.339v0l.6-1.2a.7.7,0,0,1,.623-.385h.952a.348.348,0,0,1,.311.5l-1.273,2.551a.486.486,0,0,1-.436.27h-5.591a.209.209,0,0,1-.187-.3l2.879-5.771a.7.7,0,0,1,.623-.386h10.883l.648-1.3h-3.182a.209.209,0,0,1-.187-.3l.521-1.052a.7.7,0,0,1,.624-.388h4.475A.348.348,0,0,1-1162.919,6495.342Z"
                    transform="translate(1180.538 -6488.334)" />
                <path class="a"
                    d="M-1127.15,6441.621l-2.144,4.294a.487.487,0,0,1-.436.27h-11.19l-1.415,2.835a.487.487,0,0,1-.436.27h-5.591a.209.209,0,0,1-.187-.3l.526-1.053a.7.7,0,0,1,.623-.385h3.853l1.358-2.72a.7.7,0,0,1,.623-.385h11.061l.792-1.586h-13.831l-1.526,3.057a.488.488,0,0,1-.436.27h-1.306a.209.209,0,0,1-.187-.3l2.185-4.38a.7.7,0,0,1,.623-.386h16.729A.348.348,0,0,1-1127.15,6441.621Z"
                    transform="translate(1152.44 -6441.117)" />
                <g transform="translate(32.27 1.333)">
                    <path class="a" d="M-922.769,6442.774v4.647h6.686v1.638h-6.686v5.391h-1.9v-13.333h9.41v1.657Z"
                        transform="translate(924.674 -6441.117)" />
                    <path class="a" d="M-802.9,6441.117h1.9v13.333h-1.9Z" transform="translate(815.189 -6441.117)" />
                    <path class="a"
                        d="M-731.023,6450.851c0,2.285-1.733,3.6-5.1,3.6h-6.362v-13.333h5.981c3.067,0,4.781,1.295,4.781,3.447a3.16,3.16,0,0,1-1.79,2.972A3.222,3.222,0,0,1-731.023,6450.851Zm-9.562-8.19v4.267h3.9c1.943,0,3.048-.724,3.048-2.134s-1.1-2.133-3.048-2.133Zm7.638,8.038c0-1.543-1.143-2.229-3.257-2.229h-4.381v4.438h4.381C-734.09,6452.907-732.947,6452.24-732.947,6450.7Z"
                        transform="translate(760.87 -6441.117)" />
                    <path class="a"
                        d="M-588.014,6452.793v1.657h-9.676v-13.333h9.41v1.657h-7.5v4.095h6.686v1.619h-6.686v4.3Z"
                        transform="translate(630.679 -6441.117)" />
                    <path class="a"
                        d="M-460.4,6454.45l-2.876-4.095c-.267.019-.552.038-.838.038h-3.3v4.057h-1.9v-13.333h5.2c3.467,0,5.562,1.752,5.562,4.647a4.209,4.209,0,0,1-2.933,4.21l3.162,4.476Zm-.057-8.686c0-1.9-1.276-2.99-3.714-2.99h-3.238v6h3.238C-461.73,6448.774-460.454,6447.669-460.454,6445.765Z"
                        transform="translate(515.252 -6441.117)" />
                    <path class="a"
                        d="M-339.672,6451.117h-7.086l-1.467,3.333h-1.962l6.038-13.333h1.886l6.057,13.333h-2Zm-.667-1.524-2.876-6.533-2.876,6.533Z"
                        transform="translate(408.146 -6441.117)" />
                    <path class="a"
                        d="M-181.176,6454.45l-2.876-4.095c-.267.019-.552.038-.838.038h-3.3v4.057h-1.9v-13.333h5.2c3.467,0,5.562,1.752,5.562,4.647a4.209,4.209,0,0,1-2.933,4.21l3.162,4.476Zm-.057-8.686c0-1.9-1.276-2.99-3.714-2.99h-3.238v6h3.238C-182.509,6448.774-181.233,6447.669-181.233,6445.765Z"
                        transform="translate(264.202 -6441.117)" />
                    <path class="a" d="M-67.336,6442.774h-4.572v-1.657h11.029v1.657h-4.571v11.676h-1.886Z"
                        transform="translate(157.943 -6441.117)" />
                </g>
            </svg>