<svg xmlns="http://www.w3.org/2000/svg" width="24" height="24" viewBox="0 0 24 24">
  <g id="search-icon" transform="translate(-160 67)">
    <rect id="touch-field" width="24" height="24" transform="translate(160 -67)" fill="none"/>
    <g id="search-icon-2" data-name="search-icon" transform="translate(-942 -91)">
      <g id="Search" transform="translate(1106 28)">
        <path id="Контур_2" data-name="Контур 2" d="M2,7A4.951,4.951,0,0,1,7,2a4.951,4.951,0,0,1,5,5,4.951,4.951,0,0,1-5,5A4.951,4.951,0,0,1,2,7Zm12.3,8.7a.99.99,0,0,0,1.4-1.4l-3.1-3.1A6.847,6.847,0,0,0,14,7,6.957,6.957,0,0,0,7,0,6.957,6.957,0,0,0,0,7a6.957,6.957,0,0,0,7,7,6.847,6.847,0,0,0,4.2-1.4Z" fill="#fff"/>
      </g>
    </g>
  </g>
</svg>
