<svg xmlns="http://www.w3.org/2000/svg" xmlns:xlink="http://www.w3.org/1999/xlink" width="90" height="53.571" viewBox="0 0 90 53.571">
  <defs>
    <clipPath id="clip-path">
      <rect id="Прямоугольник_1079" data-name="Прямоугольник 1079" width="90" height="53.571" transform="translate(565 1695)" fill="#fff"/>
    </clipPath>
  </defs>
  <g id="Группа_масок_2" data-name="Группа масок 2" transform="translate(-565 -1695)" clip-path="url(#clip-path)" style="mix-blend-mode: luminosity;isolation: isolate">
    <g id="onninen_logo" transform="translate(565 1713.762)">
      <path id="Контур_221" data-name="Контур 221" d="M13.707-6.016c0-4.057-3.848-5.5-6.827-5.5C3.3-11.517,0-9.637,0-6.039c0,3.325,2.9,5.5,6.88,5.5C9.57-.537,13.707-1.82,13.707-6.016ZM9.622-6.107c0,2.315-.949,3.6-2.741,3.6-1.449,0-2.794-.8-2.794-3.53,0-2.383,1.134-3.506,2.794-3.506,1.925,0,2.741,1.375,2.741,3.438" transform="translate(0 16.583)" fill="#202020"/>
      <path id="Контур_222" data-name="Контур 222" d="M19.895-11.31H16.073V-.743h3.822V-7.551c1-1.306,1.713-1.741,2.662-1.741,1.081,0,1.9.619,1.9,2.108V-.743h3.822V-7.459c0-3.118-2.531-4.058-4.429-4.058A5.184,5.184,0,0,0,19.895-9.8V-11.31" transform="translate(-0.749 16.583)" fill="#202020"/>
      <path id="Контур_223" data-name="Контур 223" d="M35.022-11.31H31.2V-.743h3.822V-7.551c1-1.306,1.713-1.741,2.663-1.741,1.081,0,1.9.619,1.9,2.108V-.743H43.4V-7.459c0-3.118-2.531-4.058-4.428-4.058A5.185,5.185,0,0,0,35.022-9.8V-11.31" transform="translate(-1.454 16.583)" fill="#202020"/>
      <path id="Контур_224" data-name="Контур 224" d="M46.234-.991h3.821V-11.558H46.234Zm1.9-15.84A1.993,1.993,0,0,0,46.022-15a1.992,1.992,0,0,0,2.109,1.833A1.992,1.992,0,0,0,50.24-15a1.992,1.992,0,0,0-2.109-1.834" transform="translate(-2.145 16.83)" fill="#202020"/>
      <path id="Контур_225" data-name="Контур 225" d="M56.306-11.31H52.484V-.743h3.823V-7.551c1-1.306,1.713-1.741,2.662-1.741,1.081,0,1.9.619,1.9,2.108V-.743h3.823V-7.459c0-3.118-2.531-4.058-4.429-4.058A5.183,5.183,0,0,0,56.306-9.8V-11.31" transform="translate(-2.446 16.583)" fill="#202020"/>
      <path id="Контур_226" data-name="Контур 226" d="M79.165-4.021a7.8,7.8,0,0,1-4.507,1.513c-2.4,0-3.876-1.1-4.008-2.98h8.726c.185-3.85-2.742-6.028-6.274-6.028-3.743,0-6.406,2.292-6.406,5.524,0,3.3,2.768,5.456,7.038,5.456a9.811,9.811,0,0,0,5.431-1.4ZM70.729-7.23a2.436,2.436,0,0,1,2.636-2.315A2.465,2.465,0,0,1,76-7.23H70.729" transform="translate(-3.109 16.583)" fill="#202020"/>
      <path id="Контур_227" data-name="Контур 227" d="M85.42-11.31H81.6V-.743H85.42V-7.551c1-1.306,1.714-1.741,2.663-1.741,1.08,0,1.9.619,1.9,2.108V-.743H93.8V-7.459c0-3.118-2.53-4.058-4.429-4.058A5.186,5.186,0,0,0,85.42-9.8V-11.31" transform="translate(-3.803 16.583)" fill="#202020"/>
    </g>
  </g>
</svg>
